# xmcd
#
# Track frame offsets: 
#        150
#        14100
#        24747
#        44510
#        56052
#        73990
#        89175
#        108895
#        122442
#        141362
#        154250
#        174192
#        186980
#        204737
#        217497
#        231137
#        250865
#
# Disc length: 3522 seconds
#
# Revision: 0
# Processed by: cddbd v1.5.2PL0 Copyright (c) Steve Scherf et al.
# Submitted via: ExactAudioCopy v0.90b3
#
DISCID=0d0dc011
DTITLE=Mr. B. - Shining the Pearls
DYEAR=1900
DGENRE=Blues
TTITLE0=Down the Road a Piece
TTITLE1=Thunder and Lightning Boogie
TTITLE2=Little Brother
TTITLE3=He May Be Your Man
TTITLE4=I Almost Lost My Mind
TTITLE5=Rocket Action
TTITLE6=You Don't Know My Mind
TTITLE7=Cow Cow Blues
TTITLE8=I Can't Sleep
TTITLE9=Texas Stomp
TTITLE10=J. C. Blues
TTITLE11=Joybox Rumble
TTITLE12=One Room Country Shack
TTITLE13=Chicago Breakdown
TTITLE14=Wild Women (Don't Have the Blues)
TTITLE15=Blues for the Nightowls
TTITLE16=Rock Little Baby
EXTD=
EXTT0=
EXTT1=
EXTT2=
EXTT3=
EXTT4=
EXTT5=
EXTT6=
EXTT7=
EXTT8=
EXTT9=
EXTT10=
EXTT11=
EXTT12=
EXTT13=
EXTT14=
EXTT15=
EXTT16=
PLAYORDER=
